<svg width="32" height="32" viewBox="0 0 32 32" fill="none" xmlns="http://www.w3.org/2000/svg">
<path d="M17.3066 7.48851C19.1064 7.79015 20.7414 8.64023 22.0466 9.94278C23.3518 11.2453 24.1967 12.8769 24.5059 14.6731M17.5814 1.59961C20.7826 2.14119 23.7022 3.65626 26.0241 5.96657C28.346 8.28373 29.8573 11.1973 30.4 14.392M27.8994 27.1021C27.8994 27.1021 26.1614 28.8091 25.7355 29.3096C25.0417 30.05 24.2242 30.3996 23.1525 30.3996C23.0495 30.3996 22.9396 30.3996 22.8365 30.3927C20.7963 30.2625 18.9003 29.4673 17.4783 28.7886C13.5901 26.9101 10.176 24.2434 7.33885 20.8636C4.99634 18.046 3.43008 15.4409 2.39278 12.6438C1.75391 10.9368 1.52035 9.60684 1.62339 8.35228C1.69209 7.55019 2.00122 6.8852 2.57139 6.3162L4.9139 3.97847C5.25051 3.66311 5.60773 3.49173 5.95808 3.49173C6.39086 3.49173 6.7412 3.75224 6.96103 3.97161C6.9679 3.97847 6.97477 3.98532 6.98164 3.99218C7.40068 4.38294 7.79911 4.78742 8.21816 5.21932C8.43111 5.43869 8.65094 5.65807 8.87076 5.8843L10.7461 7.75585C11.4743 8.48254 11.4743 9.15438 10.7461 9.88106C10.5469 10.0799 10.3546 10.2787 10.1554 10.4706C9.57833 11.0602 10.0316 10.6078 9.43398 11.1426C9.42024 11.1563 9.4065 11.1631 9.39963 11.1768C8.80885 11.7664 8.91876 12.3423 9.04241 12.733C9.04928 12.7536 9.05615 12.7742 9.06302 12.7947C9.55076 13.9739 10.2377 15.0845 11.2819 16.4076L11.2888 16.4144C13.1847 18.7453 15.1838 20.562 17.3889 21.9537C17.6706 22.1319 17.9591 22.2759 18.2339 22.413C18.4812 22.5364 18.7147 22.653 18.9139 22.7764C18.9414 22.7901 18.9689 22.8106 18.9964 22.8243C19.2299 22.9409 19.4498 22.9957 19.6765 22.9957C20.2466 22.9957 20.6039 22.6393 20.7206 22.5227L22.0672 21.1789C22.3007 20.9459 22.6717 20.6648 23.1045 20.6648C23.5304 20.6648 23.8807 20.9321 24.0937 21.1652C24.1005 21.1721 24.1005 21.1721 24.1074 21.1789L27.8925 24.9563C28.6001 25.6556 27.8994 27.1021 27.8994 27.1021Z" stroke="white" stroke-width="2" stroke-linecap="round" stroke-linejoin="round"/>
</svg>
