<svg width="20" height="22" viewBox="0 0 20 22" fill="none" xmlns="http://www.w3.org/2000/svg">
<path d="M9.6403 5.24039V8.12039C9.6403 8.65059 10.0701 9.08039 10.6003 9.08039H13.4803M15.4003 1.40039H8.68008C7.61969 1.40039 6.76008 2.26 6.76008 3.32038V5.24039M15.4003 1.40039H15.9358C16.2062 1.40039 16.4635 1.51426 16.6498 1.71021C16.9297 2.00469 17.373 2.4581 17.8003 2.84039C18.1352 3.14 18.6612 3.67771 18.9763 4.0045C19.1467 4.18122 19.2403 4.41719 19.2403 4.66266L19.2403 5.24039M15.4003 1.40039V4.28039C15.4003 4.81058 15.8301 5.24039 16.3603 5.24039H19.2403M19.2403 5.24039L19.24 14.8404C19.24 15.9008 18.3804 16.7604 17.32 16.7604H13.48M12.0403 6.68039C11.613 6.2981 11.1697 5.84469 10.8898 5.55021C10.7035 5.35426 10.4462 5.24039 10.1758 5.24039H2.92007C1.85969 5.24039 1.00008 6.1 1.00007 7.16038L1 18.6803C0.999993 19.7407 1.8596 20.6003 2.91999 20.6004L11.56 20.6004C12.6204 20.6004 13.48 19.7408 13.48 18.6804L13.4803 8.50266C13.4803 8.25719 13.3867 8.02122 13.2163 7.8445C12.9012 7.51771 12.3752 6.98001 12.0403 6.68039Z" stroke="black" stroke-opacity="0.25" stroke-width="1.5" stroke-linecap="round" stroke-linejoin="round"/>
</svg>
