<svg width="30" height="30" viewBox="0 0 30 30" fill="none" xmlns="http://www.w3.org/2000/svg">
<path d="M13.8613 6.36335C14.3679 5.45445 14.6213 5 15 5C15.3787 5 15.6321 5.45445 16.1387 6.36335L16.2698 6.59849C16.4138 6.85677 16.4858 6.98591 16.598 7.07112C16.7103 7.15633 16.8501 7.18796 17.1296 7.25122L17.3842 7.30881C18.3681 7.53142 18.86 7.64273 18.977 8.01909C19.0941 8.39546 18.7587 8.78763 18.088 9.57197L17.9144 9.77489C17.7238 9.99777 17.6285 10.1092 17.5857 10.2471C17.5428 10.385 17.5572 10.5336 17.586 10.831L17.6122 11.1018C17.7136 12.1482 17.7644 12.6715 17.4579 12.9041C17.1515 13.1367 16.6909 12.9246 15.7697 12.5005L15.5314 12.3907C15.2696 12.2702 15.1387 12.2099 15 12.2099C14.8613 12.2099 14.7304 12.2702 14.4686 12.3907L14.2303 12.5005C13.3091 12.9246 12.8485 13.1367 12.5421 12.9041C12.2356 12.6715 12.2864 12.1482 12.3878 11.1018L12.414 10.831C12.4428 10.5336 12.4572 10.385 12.4143 10.2471C12.3715 10.1092 12.2762 9.99777 12.0856 9.77489L11.912 9.57197C11.2413 8.78763 10.9059 8.39546 11.023 8.01909C11.14 7.64273 11.6319 7.53142 12.6158 7.30881L12.8704 7.25122C13.1499 7.18796 13.2897 7.15633 13.402 7.07112C13.5142 6.98591 13.5862 6.85677 13.7302 6.59849L13.8613 6.36335Z" stroke="#EDBD13" stroke-width="1.5"/>
<path d="M22.4306 10.6817C22.684 10.2272 22.8106 10 23 10C23.1894 10 23.316 10.2272 23.5694 10.6817L23.6349 10.7992C23.7069 10.9284 23.7429 10.993 23.799 11.0356C23.8551 11.0782 23.925 11.094 24.0648 11.1256L24.1921 11.1544C24.684 11.2657 24.93 11.3214 24.9885 11.5095C25.047 11.6977 24.8794 11.8938 24.544 12.286L24.4572 12.3874C24.3619 12.4989 24.3143 12.5546 24.2928 12.6235C24.2714 12.6925 24.2786 12.7668 24.293 12.9155L24.3061 13.0509C24.3568 13.5741 24.3822 13.8357 24.229 13.952C24.0758 14.0683 23.8455 13.9623 23.3849 13.7502L23.2657 13.6954C23.1348 13.6351 23.0694 13.605 23 13.605C22.9306 13.605 22.8652 13.6351 22.7343 13.6954L22.6151 13.7502C22.1545 13.9623 21.9242 14.0683 21.771 13.952C21.6178 13.8357 21.6432 13.5741 21.6939 13.0509L21.707 12.9155C21.7214 12.7668 21.7286 12.6925 21.7072 12.6235C21.6857 12.5546 21.6381 12.4989 21.5428 12.3874L21.456 12.286C21.1206 11.8938 20.953 11.6977 21.0115 11.5095C21.07 11.3214 21.316 11.2657 21.8079 11.1544L21.9352 11.1256C22.075 11.094 22.1449 11.0782 22.201 11.0356C22.2571 10.993 22.2931 10.9284 22.3651 10.7992L22.4306 10.6817Z" stroke="#EDBD13" stroke-width="1.5"/>
<path d="M6.43063 10.6817C6.68396 10.2272 6.81063 10 7 10C7.18937 10 7.31604 10.2272 7.56937 10.6817L7.63491 10.7992C7.7069 10.9284 7.74289 10.993 7.79901 11.0356C7.85513 11.0782 7.92503 11.094 8.06482 11.1256L8.19209 11.1544C8.68403 11.2657 8.93 11.3214 8.98852 11.5095C9.04704 11.6977 8.87935 11.8938 8.54398 12.286L8.45722 12.3874C8.36191 12.4989 8.31426 12.5546 8.29283 12.6235C8.27139 12.6925 8.27859 12.7668 8.293 12.9155L8.30612 13.0509C8.35682 13.5741 8.38218 13.8357 8.22897 13.952C8.07576 14.0683 7.84547 13.9623 7.38487 13.7502L7.2657 13.6954C7.13481 13.6351 7.06937 13.605 7 13.605C6.93063 13.605 6.86519 13.6351 6.7343 13.6954L6.61513 13.7502C6.15454 13.9623 5.92424 14.0683 5.77103 13.952C5.61782 13.8357 5.64318 13.5741 5.69388 13.0509L5.707 12.9155C5.72141 12.7668 5.72861 12.6925 5.70717 12.6235C5.68574 12.5546 5.63809 12.4989 5.54278 12.3874L5.45602 12.286C5.12065 11.8938 4.95296 11.6977 5.01148 11.5095C5.07 11.3214 5.31597 11.2657 5.80791 11.1544L5.93518 11.1256C6.07497 11.094 6.14487 11.0782 6.20099 11.0356C6.25711 10.993 6.29311 10.9284 6.36509 10.7992L6.43063 10.6817Z" stroke="#EDBD13" stroke-width="1.5"/>
<path opacity="0.5" d="M7 24.3884H9.25993C10.2708 24.3884 11.2925 24.4937 12.2763 24.6964C14.0166 25.0549 15.8488 25.0983 17.6069 24.8138C18.4738 24.6734 19.326 24.4589 20.0975 24.0865C20.7939 23.7504 21.6469 23.2766 22.2199 22.7459C22.7921 22.216 23.388 21.3487 23.8109 20.6707C24.1736 20.0894 23.9982 19.3762 23.4245 18.943C22.7873 18.4619 21.8417 18.462 21.2046 18.9433L19.3974 20.3084C18.697 20.8375 17.932 21.3245 17.0206 21.4699C16.911 21.4874 16.7962 21.5033 16.6764 21.5172M16.6764 21.5172C16.6403 21.5214 16.6038 21.5254 16.5668 21.5292M16.6764 21.5172C16.8222 21.486 16.9669 21.396 17.1028 21.2775C17.746 20.7161 17.7866 19.77 17.2285 19.1431C17.0991 18.9977 16.9475 18.8764 16.7791 18.7759C13.9817 17.1074 9.62942 18.3782 7 20.2429M16.6764 21.5172C16.6399 21.525 16.6033 21.5292 16.5668 21.5292M16.5668 21.5292C16.0434 21.5829 15.4312 21.5968 14.7518 21.5326" stroke="#EDBD13" stroke-width="1.5" stroke-linecap="round"/>
</svg>
