<svg width="37" height="36" viewBox="0 0 37 36" fill="none" xmlns="http://www.w3.org/2000/svg">
<path d="M0 30.4735V16.1069C0 13.7273 1.1541 11.4941 3.09872 10.1109L16.3487 0.68631C17.6351 -0.22874 19.3633 -0.228772 20.6498 0.686227L33.901 10.1109C35.8458 11.4941 37 13.7274 37 16.1071V30.4735C37 33.5257 34.5152 36 31.45 36H26.1635C24.1201 36 22.4635 34.3505 22.4635 32.3157V29.5524C22.4635 28.0263 21.2211 26.7892 19.6885 26.7892H17.3099C15.7774 26.7892 14.5349 28.0263 14.5349 29.5524V32.3157C14.5349 34.3505 12.8784 36 10.8349 36H5.55C2.48482 36 0 33.5257 0 30.4735Z" fill="#EDBD13"/>
</svg>
