<svg width="30" height="30" viewBox="0 0 30 30" fill="none" xmlns="http://www.w3.org/2000/svg">
<path d="M24 10V9.71888C24 7.52896 24 6.434 23.2927 5.83487C22.5855 5.23574 21.5045 5.41591 19.3424 5.77626L18.288 5.95199C16.6477 6.22537 15.8276 6.36205 15 6.36205C14.1724 6.36205 13.3523 6.22537 11.712 5.95199L10.6576 5.77626C8.49553 5.41591 7.4145 5.23574 6.70725 5.83487C6 6.434 6 7.52896 6 9.71888V15C6 20.4903 10.239 23.1547 12.8986 24.286C13.62 24.5929 13.9807 24.7464 15 24.7464C16.0193 24.7464 16.38 24.5929 17.1014 24.286C19.761 23.1547 24 20.4903 24 15V14" stroke="#EDBD13" stroke-width="1.5" stroke-linecap="round"/>
<path d="M9.5 12C9.79112 11.4174 10.5766 11 11.5 11C12.4234 11 13.2089 11.4174 13.5 12" stroke="#EDBD13" stroke-width="1.5" stroke-linecap="round"/>
<path d="M16.5 12C16.7911 11.4174 17.5766 11 18.5 11C19.4234 11 20.2089 11.4174 20.5 12" stroke="#EDBD13" stroke-width="1.5" stroke-linecap="round"/>
<path d="M11.5 17C11.5 17 12.55 18 15 18C17.45 18 18.5 17 18.5 17" stroke="#EDBD13" stroke-width="1.5" stroke-linecap="round"/>
</svg>
