<svg width="42" height="42" viewBox="0 0 42 42" fill="none" xmlns="http://www.w3.org/2000/svg">
<path d="M14.5287 20.4815H13.7787V20.4815L14.5287 20.4815ZM14.5287 21.7778L13.9672 22.275C14.1025 22.4278 14.2942 22.5188 14.4981 22.5272C14.702 22.5355 14.9004 22.4604 15.0477 22.3191L14.5287 21.7778ZM17.3192 20.1414C17.6181 19.8547 17.6281 19.3799 17.3415 19.0809C17.0548 18.782 16.58 18.772 16.281 19.0586L17.3192 20.1414ZM13.1616 19.1028C12.887 18.7927 12.413 18.7639 12.1029 19.0385C11.7928 19.3131 11.764 19.7871 12.0386 20.0972L13.1616 19.1028ZM25.3247 16.6093C25.6059 16.9134 26.0805 16.9318 26.3845 16.6506C26.6886 16.3693 26.7071 15.8948 26.4258 15.5907L25.3247 16.6093ZM21.0613 13.25C17.0448 13.25 13.7787 16.4821 13.7787 20.4815H15.2787C15.2787 17.3216 17.8621 14.75 21.0613 14.75V13.25ZM13.7787 20.4815L13.7787 21.7778L15.2787 21.7778L15.2787 20.4815L13.7787 20.4815ZM15.0477 22.3191L17.3192 20.1414L16.281 19.0586L14.0096 21.2364L15.0477 22.3191ZM15.0902 21.2805L13.1616 19.1028L12.0386 20.0972L13.9672 22.275L15.0902 21.2805ZM26.4258 15.5907C25.095 14.1521 23.1831 13.25 21.0613 13.25V14.75C22.7498 14.75 24.2672 15.4662 25.3247 16.6093L26.4258 15.5907Z" fill="black" fill-opacity="0.25"/>
<path d="M27.4664 20.2227L28.0271 19.7245C27.8916 19.5721 27.6999 19.4813 27.4961 19.4732C27.2923 19.4652 27.094 19.5404 26.9469 19.6817L27.4664 20.2227ZM24.6806 21.8583C24.3818 22.1452 24.3722 22.62 24.6592 22.9187C24.9461 23.2175 25.4209 23.2271 25.7196 22.9401L24.6806 21.8583ZM28.8394 22.8973C29.1145 23.207 29.5886 23.235 29.8982 22.9599C30.2079 22.6848 30.2359 22.2107 29.9608 21.9011L28.8394 22.8973ZM16.647 25.4125C16.3635 25.1105 15.8889 25.0954 15.5869 25.3789C15.2848 25.6623 15.2698 26.137 15.5532 26.439L16.647 25.4125ZM20.9088 28.7504C24.9364 28.7504 28.2164 25.521 28.2164 21.519H26.7164C26.7164 24.6761 24.1245 27.2504 20.9088 27.2504V28.7504ZM28.2164 21.519V20.2227H26.7164V21.519H28.2164ZM26.9469 19.6817L24.6806 21.8583L25.7196 22.9401L27.9859 20.7636L26.9469 19.6817ZM26.9057 20.7208L28.8394 22.8973L29.9608 21.9011L28.0271 19.7245L26.9057 20.7208ZM15.5532 26.439C16.8877 27.8609 18.7947 28.7504 20.9088 28.7504V27.2504C19.2231 27.2504 17.7077 26.5428 16.647 25.4125L15.5532 26.439Z" fill="black" fill-opacity="0.25"/>
<path d="M14 8.87295C16.0592 7.68176 18.45 7 21 7C28.732 7 35 13.268 35 21C35 28.732 28.732 35 21 35C13.268 35 7 28.732 7 21C7 18.45 7.68176 16.0592 8.87295 14" stroke="black" stroke-opacity="0.25" stroke-width="1.5" stroke-linecap="round"/>
</svg>
