<svg width="33" height="33" viewBox="0 0 33 33" fill="none" xmlns="http://www.w3.org/2000/svg">
<path d="M11.2172 8.93794C10.1392 9.81097 9.26903 10.9188 8.67128 12.1791C8.07353 13.4395 7.76356 14.8201 7.76437 16.2184C7.76868 19.6286 6.99479 22.9937 5.50317 26.0507M18.3682 31.3499C20.5719 26.619 22.0213 18.3556 21.6961 16.2184C21.2938 13.5751 20.0272 11.4629 16.9724 11.4629C13.4721 11.4629 12.4055 15.0194 12.4055 16.5304M30.4907 25.1711C31.0605 22.2218 31.3483 19.2237 31.3498 16.2184C31.3498 12.3546 29.835 8.64901 27.1386 5.9169C24.4422 3.18479 20.7851 1.6499 16.9719 1.6499C13.1586 1.6499 9.5015 3.18479 6.80511 5.9169C4.10872 8.64901 2.5939 12.3545 2.5939 16.2183C2.59542 18.1344 2.27622 20.0371 1.6499 21.845M9.0282 29.2031C10.4856 26.6691 11.5219 23.9096 12.0956 21.035M25.8709 21.3151C26.0796 19.6249 26.1828 17.9214 26.1793 16.218C26.1793 13.7438 25.2092 11.3709 23.4825 9.62141C21.7559 7.87193 19.4142 6.88887 16.9724 6.88887C16.5878 6.8862 16.2034 6.90847 15.8216 6.95554M24.9138 26.4099C24.6706 27.3464 24.3945 28.2841 24.103 29.2031M13.4913 30.6573C15.3251 27.3447 16.9794 21.8558 16.9794 16.2691" stroke="white" stroke-width="2" stroke-linecap="round" stroke-linejoin="round"/>
</svg>
